<svg width="900" height="900" viewBox="0 0 900 900" fill="none" xmlns="http://www.w3.org/2000/svg">
<circle cx="450" cy="450" r="450" fill="white"/>
<g filter="url(#filter0_d_3_10)">
<path d="M775.705 195.333L578.166 244.23L512.692 499.953L256.306 406.828L43.6594 538.273L210.803 366.583L440.74 361.176L563.87 186.473L775.705 195.333Z" fill="url(#paint0_linear_3_10)"/>
</g>
<path d="M262.188 644.625V621.75C259.75 624.25 257.031 626.219 254.031 627.656C251.031 629.094 247.781 629.812 244.281 629.812C233.969 629.812 228.812 624.562 228.812 614.062V594.469H237.906V614.25C237.906 616.938 238.625 618.938 240.062 620.25C241.562 621.5 243.625 622.125 246.25 622.125C249.688 622.125 252.719 621.344 255.344 619.781C257.969 618.156 260.25 616 262.188 613.312V594.469H271.281V644.625H262.188ZM336.531 645.281C332.406 645.281 328.969 644.125 326.219 641.812C323.469 639.5 322.094 636.188 322.094 631.875C322.094 628.75 322.812 626.094 324.25 623.906C325.75 621.719 327.688 619.906 330.062 618.469C332.5 616.969 335.156 615.812 338.031 615C340.906 614.125 343.781 613.469 346.656 613.031C349.531 612.594 352.156 612.281 354.531 612.094C354.531 610.406 354.406 608.75 354.156 607.125C353.969 605.438 353.406 604.062 352.469 603C351.531 601.938 349.938 601.406 347.688 601.406C343.75 601.406 339.938 602.156 336.25 603.656C332.562 605.094 329.094 606.906 325.844 609.094V599.906C329.344 597.906 333 596.406 336.812 595.406C340.688 594.344 344.625 593.812 348.625 593.812C353.75 593.812 357.469 595.156 359.781 597.844C362.156 600.469 363.344 604.281 363.344 609.281V633.656C363.344 633.844 363.375 634.281 363.438 634.969C363.5 635.594 363.75 635.906 364.188 635.906C364.688 635.906 365.312 635.688 366.062 635.25C366.812 634.812 367.531 634.344 368.219 633.844C368.969 633.281 369.531 632.875 369.906 632.625V641.906C368.406 642.781 366.781 643.562 365.031 644.25C363.344 644.938 361.594 645.281 359.781 645.281C357.906 645.281 356.594 644.969 355.844 644.344C355.156 643.656 354.75 642.75 354.625 641.625C354.562 640.5 354.531 639.219 354.531 637.781C352.031 639.969 349.25 641.781 346.188 643.219C343.188 644.594 339.969 645.281 336.531 645.281ZM338.406 638.062C341.344 638.062 344.219 637.219 347.031 635.531C349.906 633.781 352.406 631.969 354.531 630.094V619.219C353.094 619.344 351.375 619.531 349.375 619.781C347.375 620.031 345.281 620.438 343.094 621C340.969 621.5 338.969 622.188 337.094 623.062C335.281 623.938 333.781 625.094 332.594 626.531C331.469 627.906 330.906 629.594 330.906 631.594C330.906 633.969 331.594 635.656 332.969 636.656C334.406 637.594 336.219 638.062 338.406 638.062ZM442 591.562C437.688 591.562 434.188 590.438 431.5 588.188C428.875 585.938 426.969 582.781 425.781 578.719H434.406C434.906 580.656 435.75 582.281 436.938 583.594C438.188 584.844 439.875 585.469 442 585.469C444.188 585.469 445.875 584.844 447.062 583.594C448.25 582.281 449.125 580.656 449.688 578.719H458.312C457.125 582.844 455.188 586.031 452.5 588.281C449.875 590.469 446.375 591.562 442 591.562ZM420.812 644.625V594.469H429.906V630.562L455.5 594.469H463.281V644.625H454.188V608.531L428.594 644.625H420.812ZM521.125 644.625V594.469H530.219V613.875C531.719 613.875 533.344 613.875 535.094 613.875C536.906 613.812 538.438 613.281 539.688 612.281C540.812 611.344 541.625 610.125 542.125 608.625C542.625 607.062 543 605.438 543.25 603.75C543.562 602.062 543.969 600.469 544.469 598.969C544.969 597.469 545.719 596.25 546.719 595.312C547.781 594.312 549.344 593.812 551.406 593.812C553.906 593.812 556.125 594.531 558.062 595.969V603.375C557.438 602.75 556.719 602.219 555.906 601.781C555.094 601.281 554.25 601.031 553.375 601.031C552.375 601.031 551.688 601.438 551.312 602.25C551 603.062 550.75 604.125 550.562 605.438C550.375 606.75 550.094 608.156 549.719 609.656C549.344 611.094 548.688 612.469 547.75 613.781C546.812 615.094 545.344 616.188 543.344 617.062C545.594 617.688 547.594 619.094 549.344 621.281C551.094 623.406 552.625 625.906 553.938 628.781C555.25 631.594 556.375 634.438 557.312 637.312C558.25 640.125 559.062 642.562 559.75 644.625H549.812C549.375 642.562 548.812 640.219 548.125 637.594C547.5 634.906 546.625 632.312 545.5 629.812C544.438 627.312 543.031 625.25 541.281 623.625C539.531 621.938 537.312 621.094 534.625 621.094H530.219V644.625H521.125ZM618.625 656.531L629.125 637.406L608.312 594.469H618.156L633.812 628.031L649.562 594.469H659.688L628.844 656.531H618.625Z" fill="#784646"/>
<defs>
<filter id="filter0_d_3_10" x="39.6594" y="186.473" width="740.045" height="359.8" filterUnits="userSpaceOnUse" color-interpolation-filters="sRGB">
<feFlood flood-opacity="0" result="BackgroundImageFix"/>
<feColorMatrix in="SourceAlpha" type="matrix" values="0 0 0 0 0 0 0 0 0 0 0 0 0 0 0 0 0 0 127 0" result="hardAlpha"/>
<feOffset dy="4"/>
<feGaussianBlur stdDeviation="2"/>
<feComposite in2="hardAlpha" operator="out"/>
<feColorMatrix type="matrix" values="0 0 0 0 0 0 0 0 0 0 0 0 0 0 0 0 0 0 0.25 0"/>
<feBlend mode="normal" in2="BackgroundImageFix" result="effect1_dropShadow_3_10"/>
<feBlend mode="normal" in="SourceGraphic" in2="effect1_dropShadow_3_10" result="shape"/>
</filter>
<linearGradient id="paint0_linear_3_10" x1="60.5" y1="529" x2="767.5" y2="192.5" gradientUnits="userSpaceOnUse">
<stop stop-color="#723E3E"/>
<stop offset="0.529994" stop-color="white"/>
<stop offset="1"/>
</linearGradient>
</defs>
</svg>
